<?xml version="1.0" encoding="UTF-8" standalone="no"?>
<!DOCTYPE svg PUBLIC "-//W3C//DTD SVG 1.1//EN"
 "http://www.w3.org/Graphics/SVG/1.1/DTD/svg11.dtd">
<!-- Generated by graphviz version 2.38.0 (20140413.2041)
 -->
<!-- Title: G Pages: 1 -->
<svg width="1607pt" height="1728pt"
 viewBox="0.00 0.00 1607.00 1728.00" xmlns="http://www.w3.org/2000/svg" xmlns:xlink="http://www.w3.org/1999/xlink">
<g id="graph0" class="graph" transform="scale(1 1) rotate(0) translate(4 1724)">
<title>G</title>
<polygon fill="white" stroke="none" points="-4,4 -4,-1724 1603,-1724 1603,4 -4,4"/>
<g id="clust1" class="cluster"><title>cluster_Global</title>
<path fill="none" stroke="gray" d="M20,-44C20,-44 1579,-44 1579,-44 1585,-44 1591,-50 1591,-56 1591,-56 1591,-1700 1591,-1700 1591,-1706 1585,-1712 1579,-1712 1579,-1712 20,-1712 20,-1712 14,-1712 8,-1706 8,-1700 8,-1700 8,-56 8,-56 8,-50 14,-44 20,-44"/>
<text text-anchor="middle" x="799.5" y="-1699.2" font-family="Times New Roman,serif" font-size="11.00" fill="gray">Global</text>
</g>
<g id="clust2" class="cluster"><title>cluster_\PartDB</title>
<path fill="none" stroke="gray" d="M28,-52C28,-52 1571,-52 1571,-52 1577,-52 1583,-58 1583,-64 1583,-64 1583,-1672 1583,-1672 1583,-1678 1577,-1684 1571,-1684 1571,-1684 28,-1684 28,-1684 22,-1684 16,-1678 16,-1672 16,-1672 16,-64 16,-64 16,-58 22,-52 28,-52"/>
<text text-anchor="middle" x="799.5" y="-1671.2" font-family="Times New Roman,serif" font-size="11.00" fill="gray">PartDB</text>
</g>
<g id="clust4" class="cluster"><title>cluster_\PartDB\Exceptions</title>
<path fill="none" stroke="gray" d="M1395.5,-1530C1395.5,-1530 1559.5,-1530 1559.5,-1530 1565.5,-1530 1571.5,-1536 1571.5,-1542 1571.5,-1542 1571.5,-1644 1571.5,-1644 1571.5,-1650 1565.5,-1656 1559.5,-1656 1559.5,-1656 1395.5,-1656 1395.5,-1656 1389.5,-1656 1383.5,-1650 1383.5,-1644 1383.5,-1644 1383.5,-1542 1383.5,-1542 1383.5,-1536 1389.5,-1530 1395.5,-1530"/>
<text text-anchor="middle" x="1477.5" y="-1643.2" font-family="Times New Roman,serif" font-size="11.00" fill="gray">Exceptions</text>
</g>
<g id="clust3" class="cluster"><title>cluster_\PartDB\Base</title>
<path fill="none" stroke="gray" d="M36,-650C36,-650 1264.5,-650 1264.5,-650 1270.5,-650 1276.5,-656 1276.5,-662 1276.5,-662 1276.5,-710 1276.5,-710 1276.5,-716 1270.5,-722 1264.5,-722 1264.5,-722 36,-722 36,-722 30,-722 24,-716 24,-710 24,-710 24,-662 24,-662 24,-656 30,-650 36,-650"/>
<text text-anchor="middle" x="650.25" y="-709.2" font-family="Times New Roman,serif" font-size="11.00" fill="gray">Base</text>
</g>
<g id="clust5" class="cluster"><title>cluster_\PartDB\Interfaces</title>
<path fill="none" stroke="gray" d="M920.5,-380C920.5,-380 1030.5,-380 1030.5,-380 1036.5,-380 1042.5,-386 1042.5,-392 1042.5,-392 1042.5,-548 1042.5,-548 1042.5,-554 1036.5,-560 1030.5,-560 1030.5,-560 920.5,-560 920.5,-560 914.5,-560 908.5,-554 908.5,-548 908.5,-548 908.5,-392 908.5,-392 908.5,-386 914.5,-380 920.5,-380"/>
<text text-anchor="middle" x="975.5" y="-547.2" font-family="Times New Roman,serif" font-size="11.00" fill="gray">Interfaces</text>
</g>
<g id="clust6" class="cluster"><title>cluster_\PartDB\Label</title>
<path fill="none" stroke="gray" d="M1443,-1450C1443,-1450 1512,-1450 1512,-1450 1518,-1450 1524,-1456 1524,-1462 1524,-1462 1524,-1510 1524,-1510 1524,-1516 1518,-1522 1512,-1522 1512,-1522 1443,-1522 1443,-1522 1437,-1522 1431,-1516 1431,-1510 1431,-1510 1431,-1462 1431,-1462 1431,-1456 1437,-1450 1443,-1450"/>
<text text-anchor="middle" x="1477.5" y="-1509.2" font-family="Times New Roman,serif" font-size="11.00" fill="gray">Label</text>
</g>
<g id="clust8" class="cluster"><title>cluster_\PartDB\Permissions</title>
<path fill="none" stroke="gray" d="M924,-830C924,-830 1563,-830 1563,-830 1569,-830 1575,-836 1575,-842 1575,-842 1575,-1430 1575,-1430 1575,-1436 1569,-1442 1563,-1442 1563,-1442 924,-1442 924,-1442 918,-1442 912,-1436 912,-1430 912,-1430 912,-842 912,-842 912,-836 918,-830 924,-830"/>
<text text-anchor="middle" x="1243.5" y="-1429.2" font-family="Times New Roman,serif" font-size="11.00" fill="gray">Permissions</text>
</g>
<g id="clust7" class="cluster"><title>cluster_\PartDB\PartProperty</title>
<path fill="none" stroke="gray" d="M1178.5,-288C1178.5,-288 1274.5,-288 1274.5,-288 1280.5,-288 1286.5,-294 1286.5,-300 1286.5,-300 1286.5,-402 1286.5,-402 1286.5,-408 1280.5,-414 1274.5,-414 1274.5,-414 1178.5,-414 1178.5,-414 1172.5,-414 1166.5,-408 1166.5,-402 1166.5,-402 1166.5,-300 1166.5,-300 1166.5,-294 1172.5,-288 1178.5,-288"/>
<text text-anchor="middle" x="1226.5" y="-401.2" font-family="Times New Roman,serif" font-size="11.00" fill="gray">PartProperty</text>
</g>
<g id="clust9" class="cluster"><title>cluster_\PartDB\Tools</title>
<path fill="none" stroke="gray" d="M1429.5,-695C1429.5,-695 1525.5,-695 1525.5,-695 1531.5,-695 1537.5,-701 1537.5,-707 1537.5,-707 1537.5,-809 1537.5,-809 1537.5,-815 1531.5,-821 1525.5,-821 1525.5,-821 1429.5,-821 1429.5,-821 1423.5,-821 1417.5,-815 1417.5,-809 1417.5,-809 1417.5,-707 1417.5,-707 1417.5,-701 1423.5,-695 1429.5,-695"/>
<text text-anchor="middle" x="1477.5" y="-808.2" font-family="Times New Roman,serif" font-size="11.00" fill="gray">Tools</text>
</g>
<!-- \\PartDB\\Base\\AttachementsContainingDBElement -->
<g id="node1" class="node"><title>\\PartDB\\Base\\AttachementsContainingDBElement</title>
<polygon fill="none" stroke="black" points="597,-694 371,-694 371,-658 597,-658 597,-694"/>
<text text-anchor="start" x="450" y="-679.2" font-family="Courier,monospace" font-size="11.00">«abstract»</text>
<text text-anchor="start" x="379" y="-667.2" font-family="Courier,monospace" font-size="11.00">AttachementsContainingDBElement</text>
</g>
<!-- \\PartDB\\Base\\NamedDBElement -->
<g id="node4" class="node"><title>\\PartDB\\Base\\NamedDBElement</title>
<polygon fill="none" stroke="black" points="299,-694 188,-694 188,-658 299,-658 299,-694"/>
<text text-anchor="start" x="209.5" y="-679.2" font-family="Courier,monospace" font-size="11.00">«abstract»</text>
<text text-anchor="start" x="196" y="-667.2" font-family="Courier,monospace" font-size="11.00">NamedDBElement</text>
</g>
<!-- \\PartDB\\Base\\AttachementsContainingDBElement&#45;&gt;\\PartDB\\Base\\NamedDBElement -->
<g id="edge4" class="edge"><title>\\PartDB\\Base\\AttachementsContainingDBElement&#45;&gt;\\PartDB\\Base\\NamedDBElement</title>
<path fill="none" stroke="black" d="M370.734,-676C349.637,-676 328.247,-676 309.218,-676"/>
<polygon fill="none" stroke="black" points="309.203,-672.5 299.203,-676 309.203,-679.5 309.203,-672.5"/>
</g>
<!-- \\PartDB\\Base\\Company -->
<g id="node2" class="node"><title>\\PartDB\\Base\\Company</title>
<polygon fill="none" stroke="black" points="1268.5,-694 1184.5,-694 1184.5,-658 1268.5,-658 1268.5,-694"/>
<text text-anchor="start" x="1192.5" y="-679.2" font-family="Courier,monospace" font-size="11.00">«abstract»</text>
<text text-anchor="start" x="1202.5" y="-667.2" font-family="Courier,monospace" font-size="11.00">Company</text>
</g>
<!-- \\PartDB\\Base\\PartsContainingDBElement -->
<g id="node5" class="node"><title>\\PartDB\\Base\\PartsContainingDBElement</title>
<polygon fill="none" stroke="black" points="1065,-694 886,-694 886,-658 1065,-658 1065,-694"/>
<text text-anchor="start" x="941.5" y="-679.2" font-family="Courier,monospace" font-size="11.00">«abstract»</text>
<text text-anchor="start" x="894" y="-667.2" font-family="Courier,monospace" font-size="11.00">PartsContainingDBElement</text>
</g>
<!-- \\PartDB\\Base\\Company&#45;&gt;\\PartDB\\Base\\PartsContainingDBElement -->
<g id="edge5" class="edge"><title>\\PartDB\\Base\\Company&#45;&gt;\\PartDB\\Base\\PartsContainingDBElement</title>
<path fill="none" stroke="black" d="M1184.38,-676C1154.71,-676 1113.35,-676 1075.32,-676"/>
<polygon fill="none" stroke="black" points="1075.22,-672.5 1065.22,-676 1075.22,-679.5 1075.22,-672.5"/>
</g>
<!-- \\PartDB\\Interfaces\\IAPIModel -->
<g id="node9" class="node"><title>\\PartDB\\Interfaces\\IAPIModel</title>
<polygon fill="none" stroke="black" points="1014,-424 937,-424 937,-388 1014,-388 1014,-424"/>
<text text-anchor="middle" x="975.5" y="-403.2" font-family="Courier,monospace" font-size="11.00">IAPIModel</text>
</g>
<!-- \\PartDB\\Base\\Company&#45;&gt;\\PartDB\\Interfaces\\IAPIModel -->
<g id="edge6" class="edge"><title>\\PartDB\\Base\\Company&#45;&gt;\\PartDB\\Interfaces\\IAPIModel</title>
<path fill="none" stroke="black" stroke-dasharray="1,5" d="M1184.41,-674.275C1167.88,-671.599 1149.75,-665.868 1137,-654 1061.4,-583.603 1138.73,-505.356 1065,-433 1054.01,-422.213 1038.84,-415.718 1024.16,-411.815"/>
<polygon fill="none" stroke="black" points="1024.66,-408.339 1014.13,-409.505 1023.09,-415.16 1024.66,-408.339"/>
</g>
<!-- \\PartDB\\Base\\DBElement -->
<g id="node3" class="node"><title>\\PartDB\\Base\\DBElement</title>
<polygon fill="none" stroke="black" points="116,-694 32,-694 32,-658 116,-658 116,-694"/>
<text text-anchor="start" x="40" y="-679.2" font-family="Courier,monospace" font-size="11.00">«abstract»</text>
<text text-anchor="start" x="43.5" y="-667.2" font-family="Courier,monospace" font-size="11.00">DBElement</text>
</g>
<!-- \\PartDB\\Base\\NamedDBElement&#45;&gt;\\PartDB\\Base\\DBElement -->
<g id="edge7" class="edge"><title>\\PartDB\\Base\\NamedDBElement&#45;&gt;\\PartDB\\Base\\DBElement</title>
<path fill="none" stroke="black" d="M187.654,-676C167.921,-676 145.747,-676 126.325,-676"/>
<polygon fill="none" stroke="black" points="126.149,-672.5 116.149,-676 126.149,-679.5 126.149,-672.5"/>
</g>
<!-- \\PartDB\\Base\\StructuralDBElement -->
<g id="node6" class="node"><title>\\PartDB\\Base\\StructuralDBElement</title>
<polygon fill="none" stroke="black" points="814,-694 669,-694 669,-658 814,-658 814,-694"/>
<text text-anchor="start" x="707.5" y="-679.2" font-family="Courier,monospace" font-size="11.00">«abstract»</text>
<text text-anchor="start" x="677" y="-667.2" font-family="Courier,monospace" font-size="11.00">StructuralDBElement</text>
</g>
<!-- \\PartDB\\Base\\PartsContainingDBElement&#45;&gt;\\PartDB\\Base\\StructuralDBElement -->
<g id="edge8" class="edge"><title>\\PartDB\\Base\\PartsContainingDBElement&#45;&gt;\\PartDB\\Base\\StructuralDBElement</title>
<path fill="none" stroke="black" d="M885.798,-676C865.645,-676 844.328,-676 824.47,-676"/>
<polygon fill="none" stroke="black" points="824.233,-672.5 814.233,-676 824.233,-679.5 824.233,-672.5"/>
</g>
<!-- \\PartDB\\Base\\StructuralDBElement&#45;&gt;\\PartDB\\Base\\AttachementsContainingDBElement -->
<g id="edge9" class="edge"><title>\\PartDB\\Base\\StructuralDBElement&#45;&gt;\\PartDB\\Base\\AttachementsContainingDBElement</title>
<path fill="none" stroke="black" d="M668.989,-676C649.745,-676 628.374,-676 607.205,-676"/>
<polygon fill="none" stroke="black" points="607.173,-672.5 597.173,-676 607.173,-679.5 607.173,-672.5"/>
</g>
<!-- \\PartDB\\Exceptions\\NotImplementedException -->
<g id="node7" class="node"><title>\\PartDB\\Exceptions\\NotImplementedException</title>
<polygon fill="none" stroke="black" points="1563.5,-1628 1391.5,-1628 1391.5,-1592 1563.5,-1592 1563.5,-1628"/>
<text text-anchor="middle" x="1477.5" y="-1607.2" font-family="Courier,monospace" font-size="11.00">NotImplementedException</text>
</g>
<!-- \\RuntimeException -->
<g id="node51" class="node"><title>\\RuntimeException</title>
<ellipse fill="none" stroke="black" cx="1226.5" cy="-18" rx="79.8859" ry="18"/>
<text text-anchor="middle" x="1226.5" y="-14.3" font-family="Times New Roman,serif" font-size="14.00" fill="gray">\RuntimeException</text>
</g>
<!-- \\PartDB\\Exceptions\\NotImplementedException&#45;&gt;\\RuntimeException -->
<g id="edge15" class="edge"><title>\\PartDB\\Exceptions\\NotImplementedException&#45;&gt;\\RuntimeException</title>
<path fill="none" stroke="black" d="M1392.33,-1591.79C1389.07,-1589.22 1386.1,-1586.3 1383.5,-1583 1278.01,-1448.77 1418.49,-184.53 1316,-48 1311.58,-42.1129 1305.95,-37.3703 1299.67,-33.5514"/>
<polygon fill="none" stroke="black" points="1301.25,-30.4264 1290.76,-28.8955 1298,-36.63 1301.25,-30.4264"/>
</g>
<!-- \\PartDB\\Exceptions\\UserNotAllowedException -->
<g id="node8" class="node"><title>\\PartDB\\Exceptions\\UserNotAllowedException</title>
<polygon fill="none" stroke="black" points="1563.5,-1574 1391.5,-1574 1391.5,-1538 1563.5,-1538 1563.5,-1574"/>
<text text-anchor="middle" x="1477.5" y="-1553.2" font-family="Courier,monospace" font-size="11.00">UserNotAllowedException</text>
</g>
<!-- \\PartDB\\Exceptions\\UserNotAllowedException&#45;&gt;\\RuntimeException -->
<g id="edge16" class="edge"><title>\\PartDB\\Exceptions\\UserNotAllowedException&#45;&gt;\\RuntimeException</title>
<path fill="none" stroke="black" d="M1395.88,-1537.79C1391.21,-1534.48 1387,-1530.58 1383.5,-1526 1183.95,-1264.7 1513.61,-310.772 1316,-48 1311.58,-42.1167 1305.94,-37.3765 1299.66,-33.559"/>
<polygon fill="none" stroke="black" points="1301.23,-30.4332 1290.75,-28.9045 1297.99,-36.6375 1301.23,-30.4332"/>
</g>
<!-- \\PartDB\\Interfaces\\IHasPermissions -->
<g id="node10" class="node"><title>\\PartDB\\Interfaces\\IHasPermissions</title>
<polygon fill="none" stroke="black" points="1034.5,-478 916.5,-478 916.5,-442 1034.5,-442 1034.5,-478"/>
<text text-anchor="middle" x="975.5" y="-457.2" font-family="Courier,monospace" font-size="11.00">IHasPermissions</text>
</g>
<!-- \\PartDB\\Interfaces\\ISearchable -->
<g id="node11" class="node"><title>\\PartDB\\Interfaces\\ISearchable</title>
<polygon fill="none" stroke="black" points="1021,-532 930,-532 930,-496 1021,-496 1021,-532"/>
<text text-anchor="middle" x="975.5" y="-511.2" font-family="Courier,monospace" font-size="11.00">ISearchable</text>
</g>
<!-- \\PartDB\\Label\\PartLabel -->
<g id="node12" class="node"><title>\\PartDB\\Label\\PartLabel</title>
<polygon fill="none" stroke="black" points="1516,-1494 1439,-1494 1439,-1458 1516,-1458 1516,-1494"/>
<text text-anchor="middle" x="1477.5" y="-1473.2" font-family="Courier,monospace" font-size="11.00">PartLabel</text>
</g>
<!-- \\PartDB\\PartProperty\\PartNameRegEx -->
<g id="node13" class="node"><title>\\PartDB\\PartProperty\\PartNameRegEx</title>
<polygon fill="none" stroke="black" points="1278.5,-386 1174.5,-386 1174.5,-350 1278.5,-350 1278.5,-386"/>
<text text-anchor="middle" x="1226.5" y="-365.2" font-family="Courier,monospace" font-size="11.00">PartNameRegEx</text>
</g>
<!-- \\PartDB\\PartProperty\\PartProperty -->
<g id="node14" class="node"><title>\\PartDB\\PartProperty\\PartProperty</title>
<polygon fill="none" stroke="black" points="1275.5,-332 1177.5,-332 1177.5,-296 1275.5,-296 1275.5,-332"/>
<text text-anchor="middle" x="1226.5" y="-311.2" font-family="Courier,monospace" font-size="11.00">PartProperty</text>
</g>
<!-- \\PartDB\\PartProperty\\PartProperty&#45;&gt;\\PartDB\\Interfaces\\IAPIModel -->
<g id="edge28" class="edge"><title>\\PartDB\\PartProperty\\PartProperty&#45;&gt;\\PartDB\\Interfaces\\IAPIModel</title>
<path fill="none" stroke="black" stroke-dasharray="1,5" d="M1177.42,-326.36C1164.09,-330.404 1149.78,-335.337 1137,-341 1102.93,-356.104 1099.46,-369.795 1065,-384 1052.17,-389.289 1037.75,-393.536 1024.33,-396.833"/>
<polygon fill="none" stroke="black" points="1023.25,-393.491 1014.31,-399.172 1024.85,-400.308 1023.25,-393.491"/>
</g>
<!-- \\PartDB\\Permissions\\BasePermission -->
<g id="node15" class="node"><title>\\PartDB\\Permissions\\BasePermission</title>
<polygon fill="none" stroke="black" points="1031,-1144 920,-1144 920,-1108 1031,-1108 1031,-1144"/>
<text text-anchor="start" x="941.5" y="-1129.2" font-family="Courier,monospace" font-size="11.00">«abstract»</text>
<text text-anchor="start" x="928" y="-1117.2" font-family="Courier,monospace" font-size="11.00">BasePermission</text>
</g>
<!-- \\PartDB\\Permissions\\ConfigPermission -->
<g id="node16" class="node"><title>\\PartDB\\Permissions\\ConfigPermission</title>
<polygon fill="none" stroke="black" points="1289,-1414 1164,-1414 1164,-1378 1289,-1378 1289,-1414"/>
<text text-anchor="middle" x="1226.5" y="-1393.2" font-family="Courier,monospace" font-size="11.00">ConfigPermission</text>
</g>
<!-- \\PartDB\\Permissions\\ConfigPermission&#45;&gt;\\PartDB\\Permissions\\BasePermission -->
<g id="edge29" class="edge"><title>\\PartDB\\Permissions\\ConfigPermission&#45;&gt;\\PartDB\\Permissions\\BasePermission</title>
<path fill="none" stroke="black" d="M1163.8,-1383.25C1154.28,-1379.62 1144.98,-1374.96 1137,-1369 1059.34,-1310.99 1007.98,-1203.58 987.088,-1153.3"/>
<polygon fill="none" stroke="black" points="990.329,-1151.98 983.316,-1144.03 983.846,-1154.61 990.329,-1151.98"/>
</g>
<!-- \\PartDB\\Permissions\\CPartAttributePermission -->
<g id="node17" class="node"><title>\\PartDB\\Permissions\\CPartAttributePermission</title>
<polygon fill="none" stroke="black" points="1316,-1360 1137,-1360 1137,-1324 1316,-1324 1316,-1360"/>
<text text-anchor="middle" x="1226.5" y="-1339.2" font-family="Courier,monospace" font-size="11.00">CPartAttributePermission</text>
</g>
<!-- \\PartDB\\Permissions\\CPartAttributePermission&#45;&gt;\\PartDB\\Permissions\\BasePermission -->
<g id="edge30" class="edge"><title>\\PartDB\\Permissions\\CPartAttributePermission&#45;&gt;\\PartDB\\Permissions\\BasePermission</title>
<path fill="none" stroke="black" d="M1153.37,-1323.9C1147.64,-1321.3 1142.1,-1318.35 1137,-1315 1071.11,-1271.7 1017.35,-1193.62 992.089,-1152.69"/>
<polygon fill="none" stroke="black" points="995.036,-1150.8 986.853,-1144.07 989.054,-1154.43 995.036,-1150.8"/>
</g>
<!-- \\PartDB\\Permissions\\DatabasePermission -->
<g id="node18" class="node"><title>\\PartDB\\Permissions\\DatabasePermission</title>
<polygon fill="none" stroke="black" points="1295.5,-1306 1157.5,-1306 1157.5,-1270 1295.5,-1270 1295.5,-1306"/>
<text text-anchor="middle" x="1226.5" y="-1285.2" font-family="Courier,monospace" font-size="11.00">DatabasePermission</text>
</g>
<!-- \\PartDB\\Permissions\\DatabasePermission&#45;&gt;\\PartDB\\Permissions\\BasePermission -->
<g id="edge31" class="edge"><title>\\PartDB\\Permissions\\DatabasePermission&#45;&gt;\\PartDB\\Permissions\\BasePermission</title>
<path fill="none" stroke="black" d="M1157.19,-1270.24C1150.2,-1267.52 1143.35,-1264.45 1137,-1261 1082.73,-1231.51 1029.91,-1181.83 1000.45,-1151.66"/>
<polygon fill="none" stroke="black" points="1002.94,-1149.2 993.476,-1144.44 997.903,-1154.06 1002.94,-1149.2"/>
</g>
<!-- \\PartDB\\Permissions\\DevicePartPermission -->
<g id="node19" class="node"><title>\\PartDB\\Permissions\\DevicePartPermission</title>
<polygon fill="none" stroke="black" points="1302.5,-1252 1150.5,-1252 1150.5,-1216 1302.5,-1216 1302.5,-1252"/>
<text text-anchor="middle" x="1226.5" y="-1231.2" font-family="Courier,monospace" font-size="11.00">DevicePartPermission</text>
</g>
<!-- \\PartDB\\Permissions\\DevicePartPermission&#45;&gt;\\PartDB\\Permissions\\BasePermission -->
<g id="edge32" class="edge"><title>\\PartDB\\Permissions\\DevicePartPermission&#45;&gt;\\PartDB\\Permissions\\BasePermission</title>
<path fill="none" stroke="black" d="M1161.71,-1215.98C1153.32,-1213.19 1144.9,-1210.17 1137,-1207 1095.08,-1190.17 1049.27,-1166.49 1017.36,-1149.07"/>
<polygon fill="none" stroke="black" points="1018.78,-1145.86 1008.33,-1144.11 1015.41,-1152 1018.78,-1145.86"/>
</g>
<!-- \\PartDB\\Permissions\\GroupPermission -->
<g id="node20" class="node"><title>\\PartDB\\Permissions\\GroupPermission</title>
<polygon fill="none" stroke="black" points="1536.5,-1171 1418.5,-1171 1418.5,-1135 1536.5,-1135 1536.5,-1171"/>
<text text-anchor="middle" x="1477.5" y="-1150.2" font-family="Courier,monospace" font-size="11.00">GroupPermission</text>
</g>
<!-- \\PartDB\\Permissions\\StructuralPermission -->
<g id="node27" class="node"><title>\\PartDB\\Permissions\\StructuralPermission</title>
<polygon fill="none" stroke="black" points="1302.5,-1144 1150.5,-1144 1150.5,-1108 1302.5,-1108 1302.5,-1144"/>
<text text-anchor="middle" x="1226.5" y="-1123.2" font-family="Courier,monospace" font-size="11.00">StructuralPermission</text>
</g>
<!-- \\PartDB\\Permissions\\GroupPermission&#45;&gt;\\PartDB\\Permissions\\StructuralPermission -->
<g id="edge33" class="edge"><title>\\PartDB\\Permissions\\GroupPermission&#45;&gt;\\PartDB\\Permissions\\StructuralPermission</title>
<path fill="none" stroke="black" d="M1418.43,-1146.7C1387.04,-1143.3 1347.68,-1139.03 1312.87,-1135.26"/>
<polygon fill="none" stroke="black" points="1313.02,-1131.75 1302.7,-1134.15 1312.27,-1138.71 1313.02,-1131.75"/>
</g>
<!-- \\PartDB\\Permissions\\PartAttributePermission -->
<g id="node21" class="node"><title>\\PartDB\\Permissions\\PartAttributePermission</title>
<polygon fill="none" stroke="black" points="1312.5,-1198 1140.5,-1198 1140.5,-1162 1312.5,-1162 1312.5,-1198"/>
<text text-anchor="middle" x="1226.5" y="-1177.2" font-family="Courier,monospace" font-size="11.00">PartAttributePermission</text>
</g>
<!-- \\PartDB\\Permissions\\PartAttributePermission&#45;&gt;\\PartDB\\Permissions\\BasePermission -->
<g id="edge34" class="edge"><title>\\PartDB\\Permissions\\PartAttributePermission&#45;&gt;\\PartDB\\Permissions\\BasePermission</title>
<path fill="none" stroke="black" d="M1142.24,-1161.94C1109.2,-1154.78 1071.79,-1146.67 1040.88,-1139.96"/>
<polygon fill="none" stroke="black" points="1041.61,-1136.54 1031.09,-1137.84 1040.12,-1143.38 1041.61,-1136.54"/>
</g>
<!-- \\PartDB\\Permissions\\PartContainingPermission -->
<g id="node22" class="node"><title>\\PartDB\\Permissions\\PartContainingPermission</title>
<polygon fill="none" stroke="black" points="1567,-1117 1388,-1117 1388,-1081 1567,-1081 1567,-1117"/>
<text text-anchor="middle" x="1477.5" y="-1096.2" font-family="Courier,monospace" font-size="11.00">PartContainingPermission</text>
</g>
<!-- \\PartDB\\Permissions\\PartContainingPermission&#45;&gt;\\PartDB\\Permissions\\StructuralPermission -->
<g id="edge35" class="edge"><title>\\PartDB\\Permissions\\PartContainingPermission&#45;&gt;\\PartDB\\Permissions\\StructuralPermission</title>
<path fill="none" stroke="black" d="M1387.66,-1108.63C1363.34,-1111.27 1337.04,-1114.12 1312.92,-1116.74"/>
<polygon fill="none" stroke="black" points="1312.29,-1113.29 1302.72,-1117.84 1313.04,-1120.24 1312.29,-1113.29"/>
</g>
<!-- \\PartDB\\Permissions\\PartPermission -->
<g id="node23" class="node"><title>\\PartDB\\Permissions\\PartPermission</title>
<polygon fill="none" stroke="black" points="1282,-1090 1171,-1090 1171,-1054 1282,-1054 1282,-1090"/>
<text text-anchor="middle" x="1226.5" y="-1069.2" font-family="Courier,monospace" font-size="11.00">PartPermission</text>
</g>
<!-- \\PartDB\\Permissions\\PartPermission&#45;&gt;\\PartDB\\Permissions\\BasePermission -->
<g id="edge36" class="edge"><title>\\PartDB\\Permissions\\PartPermission&#45;&gt;\\PartDB\\Permissions\\BasePermission</title>
<path fill="none" stroke="black" d="M1170.86,-1083.85C1132.58,-1092.15 1081.29,-1103.27 1041.01,-1112.01"/>
<polygon fill="none" stroke="black" points="1040.05,-1108.64 1031.02,-1114.18 1041.53,-1115.48 1040.05,-1108.64"/>
</g>
<!-- \\PartDB\\Permissions\\PermissionGroup -->
<g id="node24" class="node"><title>\\PartDB\\Permissions\\PermissionGroup</title>
<polygon fill="none" stroke="black" points="1536.5,-1036 1418.5,-1036 1418.5,-1000 1536.5,-1000 1536.5,-1036"/>
<text text-anchor="middle" x="1477.5" y="-1015.2" font-family="Courier,monospace" font-size="11.00">PermissionGroup</text>
</g>
<!-- \\PartDB\\Permissions\\PermissionManager -->
<g id="node25" class="node"><title>\\PartDB\\Permissions\\PermissionManager</title>
<polygon fill="none" stroke="black" points="1543,-928 1412,-928 1412,-892 1543,-892 1543,-928"/>
<text text-anchor="middle" x="1477.5" y="-907.2" font-family="Courier,monospace" font-size="11.00">PermissionManager</text>
</g>
<!-- \\PartDB\\Permissions\\SelfPermission -->
<g id="node26" class="node"><title>\\PartDB\\Permissions\\SelfPermission</title>
<polygon fill="none" stroke="black" points="1282,-1036 1171,-1036 1171,-1000 1282,-1000 1282,-1036"/>
<text text-anchor="middle" x="1226.5" y="-1015.2" font-family="Courier,monospace" font-size="11.00">SelfPermission</text>
</g>
<!-- \\PartDB\\Permissions\\SelfPermission&#45;&gt;\\PartDB\\Permissions\\BasePermission -->
<g id="edge37" class="edge"><title>\\PartDB\\Permissions\\SelfPermission&#45;&gt;\\PartDB\\Permissions\\BasePermission</title>
<path fill="none" stroke="black" d="M1170.8,-1031.03C1159.3,-1034.77 1147.48,-1039.39 1137,-1045 1100.52,-1064.52 1101.98,-1085.45 1065,-1104 1057.47,-1107.78 1049.25,-1110.93 1040.96,-1113.57"/>
<polygon fill="none" stroke="black" points="1039.83,-1110.25 1031.21,-1116.42 1041.79,-1116.97 1039.83,-1110.25"/>
</g>
<!-- \\PartDB\\Permissions\\StructuralPermission&#45;&gt;\\PartDB\\Permissions\\BasePermission -->
<g id="edge38" class="edge"><title>\\PartDB\\Permissions\\StructuralPermission&#45;&gt;\\PartDB\\Permissions\\BasePermission</title>
<path fill="none" stroke="black" d="M1150.45,-1126C1115.68,-1126 1074.75,-1126 1041.33,-1126"/>
<polygon fill="none" stroke="black" points="1041.22,-1122.5 1031.22,-1126 1041.22,-1129.5 1041.22,-1122.5"/>
</g>
<!-- \\PartDB\\Permissions\\SystemPermission -->
<g id="node28" class="node"><title>\\PartDB\\Permissions\\SystemPermission</title>
<polygon fill="none" stroke="black" points="1289,-982 1164,-982 1164,-946 1289,-946 1289,-982"/>
<text text-anchor="middle" x="1226.5" y="-961.2" font-family="Courier,monospace" font-size="11.00">SystemPermission</text>
</g>
<!-- \\PartDB\\Permissions\\SystemPermission&#45;&gt;\\PartDB\\Permissions\\BasePermission -->
<g id="edge39" class="edge"><title>\\PartDB\\Permissions\\SystemPermission&#45;&gt;\\PartDB\\Permissions\\BasePermission</title>
<path fill="none" stroke="black" d="M1163.72,-976.635C1154.21,-980.283 1144.93,-984.974 1137,-991 1089.59,-1027.03 1113.34,-1069.23 1065,-1104 1057.81,-1109.17 1049.54,-1113.13 1040.99,-1116.17"/>
<polygon fill="none" stroke="black" points="1039.78,-1112.88 1031.28,-1119.21 1041.87,-1119.56 1039.78,-1112.88"/>
</g>
<!-- \\PartDB\\Permissions\\ToolsPermission -->
<g id="node29" class="node"><title>\\PartDB\\Permissions\\ToolsPermission</title>
<polygon fill="none" stroke="black" points="1285.5,-928 1167.5,-928 1167.5,-892 1285.5,-892 1285.5,-928"/>
<text text-anchor="middle" x="1226.5" y="-907.2" font-family="Courier,monospace" font-size="11.00">ToolsPermission</text>
</g>
<!-- \\PartDB\\Permissions\\ToolsPermission&#45;&gt;\\PartDB\\Permissions\\BasePermission -->
<g id="edge40" class="edge"><title>\\PartDB\\Permissions\\ToolsPermission&#45;&gt;\\PartDB\\Permissions\\BasePermission</title>
<path fill="none" stroke="black" d="M1167.42,-919.842C1156.39,-923.778 1145.62,-929.288 1137,-937 1076.77,-990.896 1126.63,-1051.7 1065,-1104 1058,-1109.94 1049.62,-1114.32 1040.86,-1117.54"/>
<polygon fill="none" stroke="black" points="1039.71,-1114.23 1031.24,-1120.6 1041.83,-1120.9 1039.71,-1114.23"/>
</g>
<!-- \\PartDB\\Permissions\\UserPermission -->
<g id="node30" class="node"><title>\\PartDB\\Permissions\\UserPermission</title>
<polygon fill="none" stroke="black" points="1282,-874 1171,-874 1171,-838 1282,-838 1282,-874"/>
<text text-anchor="middle" x="1226.5" y="-853.2" font-family="Courier,monospace" font-size="11.00">UserPermission</text>
</g>
<!-- \\PartDB\\Permissions\\UserPermission&#45;&gt;\\PartDB\\Permissions\\BasePermission -->
<g id="edge41" class="edge"><title>\\PartDB\\Permissions\\UserPermission&#45;&gt;\\PartDB\\Permissions\\BasePermission</title>
<path fill="none" stroke="black" d="M1170.99,-863.825C1158.56,-867.837 1146.29,-873.886 1137,-883 1063.27,-955.356 1140.6,-1033.6 1065,-1104 1058.19,-1110.34 1049.85,-1114.93 1041.03,-1118.23"/>
<polygon fill="none" stroke="black" points="1039.79,-1114.96 1031.33,-1121.34 1041.92,-1121.62 1039.79,-1114.96"/>
</g>
<!-- \\PartDB\\Tools\\PDBDebugBar -->
<g id="node31" class="node"><title>\\PartDB\\Tools\\PDBDebugBar</title>
<polygon fill="none" stroke="black" points="1523,-793 1432,-793 1432,-757 1523,-757 1523,-793"/>
<text text-anchor="middle" x="1477.5" y="-772.2" font-family="Courier,monospace" font-size="11.00">PDBDebugBar</text>
</g>
<!-- \\PartDB\\Tools\\SystemVersion -->
<g id="node32" class="node"><title>\\PartDB\\Tools\\SystemVersion</title>
<polygon fill="none" stroke="black" points="1529.5,-739 1425.5,-739 1425.5,-703 1529.5,-703 1529.5,-739"/>
<text text-anchor="middle" x="1477.5" y="-718.2" font-family="Courier,monospace" font-size="11.00">SystemVersion</text>
</g>
<!-- \\PartDB\\Attachement -->
<g id="node33" class="node"><title>\\PartDB\\Attachement</title>
<polygon fill="none" stroke="black" points="529.5,-620 438.5,-620 438.5,-584 529.5,-584 529.5,-620"/>
<text text-anchor="middle" x="484" y="-599.2" font-family="Courier,monospace" font-size="11.00">Attachement</text>
</g>
<!-- \\PartDB\\Attachement&#45;&gt;\\PartDB\\Base\\NamedDBElement -->
<g id="edge1" class="edge"><title>\\PartDB\\Attachement&#45;&gt;\\PartDB\\Base\\NamedDBElement</title>
<path fill="none" stroke="black" d="M438.452,-614.262C417.863,-620.048 393.125,-627.17 371,-634 350.003,-640.482 327.177,-647.934 306.769,-654.745"/>
<polygon fill="none" stroke="black" points="305.642,-651.431 297.271,-657.926 307.865,-658.069 305.642,-651.431"/>
</g>
<!-- \\PartDB\\AttachementType -->
<g id="node34" class="node"><title>\\PartDB\\AttachementType</title>
<polygon fill="none" stroke="black" points="1285.5,-204 1167.5,-204 1167.5,-168 1285.5,-168 1285.5,-204"/>
<text text-anchor="middle" x="1226.5" y="-183.2" font-family="Courier,monospace" font-size="11.00">AttachementType</text>
</g>
<!-- \\PartDB\\AttachementType&#45;&gt;\\PartDB\\Base\\StructuralDBElement -->
<g id="edge2" class="edge"><title>\\PartDB\\AttachementType&#45;&gt;\\PartDB\\Base\\StructuralDBElement</title>
<path fill="none" stroke="black" d="M974.5,-240C914.684,-280.283 915.087,-310.011 886,-376 835.879,-489.711 898.707,-558.07 816.7,-650.406"/>
<polygon fill="none" stroke="black" points="813.932,-648.243 809.713,-657.962 819.072,-652.996 813.932,-648.243"/>
<path fill="none" stroke="black" d="M1167.4,-186.637C1113.68,-189.834 1033.74,-201.454 976.5,-240"/>
</g>
<!-- \\PartDB\\AttachementType&#45;&gt;\\PartDB\\Interfaces\\IAPIModel -->
<g id="edge3" class="edge"><title>\\PartDB\\AttachementType&#45;&gt;\\PartDB\\Interfaces\\IAPIModel</title>
<path fill="none" stroke="black" stroke-dasharray="1,5" d="M1167.37,-195.785C1156.34,-199.725 1145.59,-205.251 1137,-213 1075.78,-268.249 1127.65,-330.376 1065,-384 1053.77,-393.61 1038.97,-399.137 1024.68,-402.281"/>
<polygon fill="none" stroke="black" points="1023.63,-398.915 1014.44,-404.173 1024.91,-405.799 1023.63,-398.915"/>
</g>
<!-- \\PartDB\\Category -->
<g id="node35" class="node"><title>\\PartDB\\Category</title>
<polygon fill="none" stroke="black" points="1262,-458 1191,-458 1191,-422 1262,-422 1262,-458"/>
<text text-anchor="middle" x="1226.5" y="-437.2" font-family="Courier,monospace" font-size="11.00">Category</text>
</g>
<!-- \\PartDB\\Category&#45;&gt;\\PartDB\\Base\\PartsContainingDBElement -->
<g id="edge10" class="edge"><title>\\PartDB\\Category&#45;&gt;\\PartDB\\Base\\PartsContainingDBElement</title>
<path fill="none" stroke="black" d="M1190.88,-454.621C1173.73,-462.769 1153.27,-473.914 1137,-487 1105.11,-512.657 1032.03,-604.485 996.558,-650.02"/>
<polygon fill="none" stroke="black" points="993.762,-647.913 990.389,-657.957 999.289,-652.209 993.762,-647.913"/>
</g>
<!-- \\PartDB\\Category&#45;&gt;\\PartDB\\Interfaces\\IAPIModel -->
<g id="edge11" class="edge"><title>\\PartDB\\Category&#45;&gt;\\PartDB\\Interfaces\\IAPIModel</title>
<path fill="none" stroke="black" stroke-dasharray="1,5" d="M1190.88,-435.272C1147.46,-429.344 1072.83,-419.153 1024.07,-412.496"/>
<polygon fill="none" stroke="black" points="1024.46,-409.017 1014.08,-411.132 1023.52,-415.952 1024.46,-409.017"/>
</g>
<!-- \\PartDB\\Category&#45;&gt;\\PartDB\\Interfaces\\ISearchable -->
<g id="edge12" class="edge"><title>\\PartDB\\Category&#45;&gt;\\PartDB\\Interfaces\\ISearchable</title>
<path fill="none" stroke="black" stroke-dasharray="1,5" d="M1190.88,-450.289C1149.5,-462.587 1079.75,-483.315 1031.09,-497.776"/>
<polygon fill="none" stroke="black" points="1029.94,-494.468 1021.35,-500.671 1031.93,-501.178 1029.94,-494.468"/>
</g>
<!-- \\PartDB\\Database -->
<g id="node36" class="node"><title>\\PartDB\\Database</title>
<polygon fill="none" stroke="black" points="1513,-683 1442,-683 1442,-647 1513,-647 1513,-683"/>
<text text-anchor="middle" x="1477.5" y="-662.2" font-family="Courier,monospace" font-size="11.00">Database</text>
</g>
<!-- \\PartDB\\Device -->
<g id="node37" class="node"><title>\\PartDB\\Device</title>
<polygon fill="none" stroke="black" points="1255,-766 1198,-766 1198,-730 1255,-730 1255,-766"/>
<text text-anchor="middle" x="1226.5" y="-745.2" font-family="Courier,monospace" font-size="11.00">Device</text>
</g>
<!-- \\PartDB\\Device&#45;&gt;\\PartDB\\Base\\PartsContainingDBElement -->
<g id="edge13" class="edge"><title>\\PartDB\\Device&#45;&gt;\\PartDB\\Base\\PartsContainingDBElement</title>
<path fill="none" stroke="black" d="M1197.74,-742.055C1180.17,-738.058 1157.07,-732.369 1137,-726 1104.27,-715.615 1097.73,-708.385 1065,-698 1063.94,-697.665 1062.88,-697.331 1061.81,-697"/>
<polygon fill="none" stroke="black" points="1062.58,-693.58 1052,-694.077 1060.58,-700.288 1062.58,-693.58"/>
</g>
<!-- \\PartDB\\DevicePart -->
<g id="node38" class="node"><title>\\PartDB\\DevicePart</title>
<polygon fill="none" stroke="black" points="285.5,-766 201.5,-766 201.5,-730 285.5,-730 285.5,-766"/>
<text text-anchor="middle" x="243.5" y="-745.2" font-family="Courier,monospace" font-size="11.00">DevicePart</text>
</g>
<!-- \\PartDB\\DevicePart&#45;&gt;\\PartDB\\Base\\DBElement -->
<g id="edge14" class="edge"><title>\\PartDB\\DevicePart&#45;&gt;\\PartDB\\Base\\DBElement</title>
<path fill="none" stroke="black" d="M201.373,-731.567C196.852,-729.71 192.323,-727.828 188,-726 166.935,-717.091 143.816,-706.93 124.008,-698.106"/>
<polygon fill="none" stroke="black" points="125.426,-694.905 114.868,-694.024 122.572,-701.297 125.426,-694.905"/>
</g>
<!-- \\PartDB\\Footprint -->
<g id="node39" class="node"><title>\\PartDB\\Footprint</title>
<polygon fill="none" stroke="black" points="1265,-586 1188,-586 1188,-550 1265,-550 1265,-586"/>
<text text-anchor="middle" x="1226.5" y="-565.2" font-family="Courier,monospace" font-size="11.00">Footprint</text>
</g>
<!-- \\PartDB\\Footprint&#45;&gt;\\PartDB\\Base\\PartsContainingDBElement -->
<g id="edge17" class="edge"><title>\\PartDB\\Footprint&#45;&gt;\\PartDB\\Base\\PartsContainingDBElement</title>
<path fill="none" stroke="black" d="M1187.98,-577.906C1172.04,-582.506 1153.4,-588.417 1137,-595 1095.08,-611.827 1049.27,-635.514 1017.36,-652.927"/>
<polygon fill="none" stroke="black" points="1015.41,-650.005 1008.33,-657.888 1018.78,-656.139 1015.41,-650.005"/>
</g>
<!-- \\PartDB\\Footprint&#45;&gt;\\PartDB\\Interfaces\\IAPIModel -->
<g id="edge18" class="edge"><title>\\PartDB\\Footprint&#45;&gt;\\PartDB\\Interfaces\\IAPIModel</title>
<path fill="none" stroke="black" stroke-dasharray="1,5" d="M1187.58,-562.381C1170.85,-558.478 1151.69,-551.928 1137,-541 1090.71,-506.574 1111.29,-467.426 1065,-433 1053.18,-424.206 1038.46,-418.248 1024.45,-414.222"/>
<polygon fill="none" stroke="black" points="1024.98,-410.743 1014.42,-411.619 1023.22,-417.519 1024.98,-410.743"/>
</g>
<!-- \\PartDB\\Footprint&#45;&gt;\\PartDB\\Interfaces\\ISearchable -->
<g id="edge19" class="edge"><title>\\PartDB\\Footprint&#45;&gt;\\PartDB\\Interfaces\\ISearchable</title>
<path fill="none" stroke="black" stroke-dasharray="1,5" d="M1187.95,-559.857C1146.22,-550.807 1078.46,-536.112 1030.92,-525.802"/>
<polygon fill="none" stroke="black" points="1031.61,-522.371 1021.1,-523.672 1030.13,-529.212 1031.61,-522.371"/>
</g>
<!-- \\PartDB\\Group -->
<g id="node40" class="node"><title>\\PartDB\\Group</title>
<polygon fill="none" stroke="black" points="1253.5,-258 1199.5,-258 1199.5,-222 1253.5,-222 1253.5,-258"/>
<text text-anchor="middle" x="1226.5" y="-237.2" font-family="Courier,monospace" font-size="11.00">Group</text>
</g>
<!-- \\PartDB\\Group&#45;&gt;\\PartDB\\Base\\StructuralDBElement -->
<g id="edge20" class="edge"><title>\\PartDB\\Group&#45;&gt;\\PartDB\\Base\\StructuralDBElement</title>
<path fill="none" stroke="black" d="M1199.12,-231.194C1150.43,-216.698 1045.16,-193.757 976.5,-240"/>
</g>
<!-- \\PartDB\\Group&#45;&gt;\\PartDB\\Interfaces\\IHasPermissions -->
<g id="edge21" class="edge"><title>\\PartDB\\Group&#45;&gt;\\PartDB\\Interfaces\\IHasPermissions</title>
<path fill="none" stroke="black" stroke-dasharray="1,5" d="M1199.4,-243.821C1180.08,-247.864 1154.24,-255.987 1137,-272 1079.57,-325.351 1123.76,-381.126 1065,-433 1058.99,-438.307 1051.96,-442.571 1044.53,-445.997"/>
<polygon fill="none" stroke="black" points="1042.89,-442.884 1034.96,-449.904 1045.54,-449.365 1042.89,-442.884"/>
</g>
<!-- \\PartDB\\HTML -->
<g id="node41" class="node"><title>\\PartDB\\HTML</title>
<polygon fill="none" stroke="black" points="1504.5,-625 1450.5,-625 1450.5,-589 1504.5,-589 1504.5,-625"/>
<text text-anchor="middle" x="1477.5" y="-604.2" font-family="Courier,monospace" font-size="11.00">HTML</text>
</g>
<!-- \\PartDB\\Log -->
<g id="node42" class="node"><title>\\PartDB\\Log</title>
<polygon fill="none" stroke="black" points="1504.5,-564 1450.5,-564 1450.5,-528 1504.5,-528 1504.5,-564"/>
<text text-anchor="middle" x="1477.5" y="-543.2" font-family="Courier,monospace" font-size="11.00">Log</text>
</g>
<!-- \\PartDB\\Manufacturer -->
<g id="node43" class="node"><title>\\PartDB\\Manufacturer</title>
<polygon fill="none" stroke="black" points="1526.5,-368 1428.5,-368 1428.5,-332 1526.5,-332 1526.5,-368"/>
<text text-anchor="middle" x="1477.5" y="-347.2" font-family="Courier,monospace" font-size="11.00">Manufacturer</text>
</g>
<!-- \\PartDB\\Manufacturer&#45;&gt;\\PartDB\\Base\\Company -->
<g id="edge22" class="edge"><title>\\PartDB\\Manufacturer&#45;&gt;\\PartDB\\Base\\Company</title>
<path fill="none" stroke="black" d="M1455.24,-368.096C1434.35,-386.905 1402.87,-418.145 1383.5,-451 1335.22,-532.91 1385.78,-589.419 1316,-654 1305.71,-663.519 1291.96,-669.085 1278.37,-672.294"/>
<polygon fill="none" stroke="black" points="1277.68,-668.863 1268.55,-674.237 1279.04,-675.729 1277.68,-668.863"/>
</g>
<!-- \\PartDB\\Manufacturer&#45;&gt;\\PartDB\\Interfaces\\ISearchable -->
<g id="edge23" class="edge"><title>\\PartDB\\Manufacturer&#45;&gt;\\PartDB\\Interfaces\\ISearchable</title>
<path fill="none" stroke="black" stroke-dasharray="1,5" d="M1443.57,-331.981C1411.94,-315.77 1362.26,-293.139 1316,-284 1276.98,-276.29 1169.49,-261.051 1137,-284 1058.81,-339.23 1134.19,-420.84 1065,-487 1055.66,-495.935 1043.44,-501.921 1031.08,-505.929"/>
<polygon fill="none" stroke="black" points="1029.85,-502.638 1021.19,-508.737 1031.77,-509.372 1029.85,-502.638"/>
</g>
<!-- \\PartDB\\Orderdetails -->
<g id="node44" class="node"><title>\\PartDB\\Orderdetails</title>
<polygon fill="none" stroke="black" points="1275.5,-150 1177.5,-150 1177.5,-114 1275.5,-114 1275.5,-150"/>
<text text-anchor="middle" x="1226.5" y="-129.2" font-family="Courier,monospace" font-size="11.00">Orderdetails</text>
</g>
<!-- \\PartDB\\Orderdetails&#45;&gt;\\PartDB\\Base\\DBElement -->
<g id="edge24" class="edge"><title>\\PartDB\\Orderdetails&#45;&gt;\\PartDB\\Base\\DBElement</title>
<path fill="none" stroke="black" d="M1177.26,-130.472C1127.07,-129.24 1046.21,-128.261 976.5,-132"/>
</g>
<!-- \\PartDB\\Orderdetails&#45;&gt;\\PartDB\\Interfaces\\IAPIModel -->
<g id="edge25" class="edge"><title>\\PartDB\\Orderdetails&#45;&gt;\\PartDB\\Interfaces\\IAPIModel</title>
<path fill="none" stroke="black" stroke-dasharray="1,5" d="M1177.41,-137.888C1162.85,-141.802 1147.86,-148.283 1137,-159 1062.25,-232.737 1141.65,-312.249 1065,-384 1053.92,-394.373 1038.72,-400.062 1024.05,-403.121"/>
<polygon fill="none" stroke="black" points="1023.3,-399.699 1014.03,-404.843 1024.48,-406.598 1023.3,-399.699"/>
</g>
<!-- \\PartDB\\Part -->
<g id="node45" class="node"><title>\\PartDB\\Part</title>
<polygon fill="none" stroke="black" points="1253.5,-820 1199.5,-820 1199.5,-784 1253.5,-784 1253.5,-820"/>
<text text-anchor="middle" x="1226.5" y="-799.2" font-family="Courier,monospace" font-size="11.00">Part</text>
</g>
<!-- \\PartDB\\Part&#45;&gt;\\PartDB\\Base\\AttachementsContainingDBElement -->
<g id="edge26" class="edge"><title>\\PartDB\\Part&#45;&gt;\\PartDB\\Base\\AttachementsContainingDBElement</title>
<path fill="none" stroke="black" d="M1199.31,-798.753C1119.44,-788.7 872.047,-756.443 669,-718 635.883,-711.73 599.671,-703.717 568.199,-696.375"/>
<polygon fill="none" stroke="black" points="568.692,-692.896 558.157,-694.018 567.092,-699.711 568.692,-692.896"/>
</g>
<!-- \\PartDB\\Part&#45;&gt;\\PartDB\\Interfaces\\IAPIModel -->
<g id="edge27" class="edge"><title>\\PartDB\\Part&#45;&gt;\\PartDB\\Interfaces\\IAPIModel</title>
<path fill="none" stroke="black" stroke-dasharray="1,5" d="M1199.29,-800.912C1179.39,-798.651 1152.83,-792.302 1137,-775 1032.14,-660.406 1169.86,-547.594 1065,-433 1054.51,-421.542 1039.33,-414.887 1024.48,-411.042"/>
<polygon fill="none" stroke="black" points="1024.84,-407.538 1014.32,-408.805 1023.33,-414.374 1024.84,-407.538"/>
</g>
<!-- \\PartDB\\Pricedetails -->
<g id="node46" class="node"><title>\\PartDB\\Pricedetails</title>
<polygon fill="none" stroke="black" points="1275.5,-96 1177.5,-96 1177.5,-60 1275.5,-60 1275.5,-96"/>
<text text-anchor="middle" x="1226.5" y="-75.2" font-family="Courier,monospace" font-size="11.00">Pricedetails</text>
</g>
<!-- \\PartDB\\Pricedetails&#45;&gt;\\PartDB\\Base\\DBElement -->
<g id="edge42" class="edge"><title>\\PartDB\\Pricedetails&#45;&gt;\\PartDB\\Base\\DBElement</title>
<path fill="none" stroke="black" d="M974.5,-132C570.876,-153.646 192.376,-545.019 97.6385,-650.174"/>
<polygon fill="none" stroke="black" points="94.8764,-648.012 90.8165,-657.798 100.093,-652.68 94.8764,-648.012"/>
<path fill="none" stroke="black" d="M1177.08,-89.8411C1127.09,-101.751 1046.7,-120.021 976.5,-132"/>
</g>
<!-- \\PartDB\\Pricedetails&#45;&gt;\\PartDB\\Interfaces\\IAPIModel -->
<g id="edge43" class="edge"><title>\\PartDB\\Pricedetails&#45;&gt;\\PartDB\\Interfaces\\IAPIModel</title>
<path fill="none" stroke="black" stroke-dasharray="1,5" d="M1177.5,-83.4032C1162.78,-87.279 1147.66,-93.8607 1137,-105 1048.44,-197.505 1155.96,-293.85 1065,-384 1054.22,-394.685 1039.1,-400.453 1024.41,-403.487"/>
<polygon fill="none" stroke="black" points="1023.64,-400.067 1014.36,-405.178 1024.8,-406.97 1023.64,-400.067"/>
</g>
<!-- \\PartDB\\Storelocation -->
<g id="node47" class="node"><title>\\PartDB\\Storelocation</title>
<polygon fill="none" stroke="black" points="1278.5,-532 1174.5,-532 1174.5,-496 1278.5,-496 1278.5,-532"/>
<text text-anchor="middle" x="1226.5" y="-511.2" font-family="Courier,monospace" font-size="11.00">Storelocation</text>
</g>
<!-- \\PartDB\\Storelocation&#45;&gt;\\PartDB\\Base\\PartsContainingDBElement -->
<g id="edge44" class="edge"><title>\\PartDB\\Storelocation&#45;&gt;\\PartDB\\Base\\PartsContainingDBElement</title>
<path fill="none" stroke="black" d="M1174.46,-525.748C1161.81,-529.681 1148.57,-534.711 1137,-541 1082.73,-570.486 1029.91,-620.167 1000.45,-650.336"/>
<polygon fill="none" stroke="black" points="997.903,-647.935 993.476,-657.561 1002.94,-652.797 997.903,-647.935"/>
</g>
<!-- \\PartDB\\Storelocation&#45;&gt;\\PartDB\\Interfaces\\IAPIModel -->
<g id="edge45" class="edge"><title>\\PartDB\\Storelocation&#45;&gt;\\PartDB\\Interfaces\\IAPIModel</title>
<path fill="none" stroke="black" stroke-dasharray="1,5" d="M1191.32,-495.881C1151.95,-475.169 1089.55,-442.855 1065,-433 1051.8,-427.703 1037.15,-422.841 1023.63,-418.747"/>
<polygon fill="none" stroke="black" points="1024.6,-415.384 1014.02,-415.906 1022.62,-422.097 1024.6,-415.384"/>
</g>
<!-- \\PartDB\\Storelocation&#45;&gt;\\PartDB\\Interfaces\\ISearchable -->
<g id="edge46" class="edge"><title>\\PartDB\\Storelocation&#45;&gt;\\PartDB\\Interfaces\\ISearchable</title>
<path fill="none" stroke="black" stroke-dasharray="1,5" d="M1174.21,-514C1132.52,-514 1073.84,-514 1031.24,-514"/>
<polygon fill="none" stroke="black" points="1031.05,-510.5 1021.05,-514 1031.05,-517.5 1031.05,-510.5"/>
</g>
<!-- \\PartDB\\Supplier -->
<g id="node48" class="node"><title>\\PartDB\\Supplier</title>
<polygon fill="none" stroke="black" points="1513,-496 1442,-496 1442,-460 1513,-460 1513,-496"/>
<text text-anchor="middle" x="1477.5" y="-475.2" font-family="Courier,monospace" font-size="11.00">Supplier</text>
</g>
<!-- \\PartDB\\Supplier&#45;&gt;\\PartDB\\Base\\Company -->
<g id="edge47" class="edge"><title>\\PartDB\\Supplier&#45;&gt;\\PartDB\\Base\\Company</title>
<path fill="none" stroke="black" d="M1441.81,-486.965C1422.74,-493.331 1399.72,-503.542 1383.5,-519 1334.93,-565.272 1368.35,-612.06 1316,-654 1305.37,-662.519 1291.88,-667.796 1278.66,-671.049"/>
<polygon fill="none" stroke="black" points="1277.72,-667.671 1268.66,-673.162 1279.16,-674.52 1277.72,-667.671"/>
</g>
<!-- \\PartDB\\Supplier&#45;&gt;\\PartDB\\Interfaces\\ISearchable -->
<g id="edge48" class="edge"><title>\\PartDB\\Supplier&#45;&gt;\\PartDB\\Interfaces\\ISearchable</title>
<path fill="none" stroke="black" stroke-dasharray="1,5" d="M1441.7,-477.318C1380.11,-476.469 1247.92,-476.254 1137,-487 1101.62,-490.427 1062.27,-497.005 1031.38,-502.809"/>
<polygon fill="none" stroke="black" points="1030.41,-499.43 1021.24,-504.743 1031.72,-506.306 1030.41,-499.43"/>
</g>
<!-- \\PartDB\\System -->
<g id="node49" class="node"><title>\\PartDB\\System</title>
<polygon fill="none" stroke="black" points="1506,-242 1449,-242 1449,-206 1506,-206 1506,-242"/>
<text text-anchor="middle" x="1477.5" y="-221.2" font-family="Courier,monospace" font-size="11.00">System</text>
</g>
<!-- \\PartDB\\User -->
<g id="node50" class="node"><title>\\PartDB\\User</title>
<polygon fill="none" stroke="black" points="1253.5,-640 1199.5,-640 1199.5,-604 1253.5,-604 1253.5,-640"/>
<text text-anchor="middle" x="1226.5" y="-619.2" font-family="Courier,monospace" font-size="11.00">User</text>
</g>
<!-- \\PartDB\\User&#45;&gt;\\PartDB\\Base\\NamedDBElement -->
<g id="edge49" class="edge"><title>\\PartDB\\User&#45;&gt;\\PartDB\\Base\\NamedDBElement</title>
<path fill="none" stroke="black" d="M1199.32,-626.211C1181.15,-629.814 1156.76,-636.033 1137,-646 1100.56,-664.383 1103.55,-689.589 1065,-703 1023.44,-717.458 710.742,-716.914 669,-703 631.053,-690.351 634.947,-661.649 597,-649 501.71,-617.237 470.89,-638.459 371,-649 350.653,-651.147 328.767,-655.186 309.014,-659.498"/>
<polygon fill="none" stroke="black" points="308.194,-656.094 299.202,-661.699 309.726,-662.925 308.194,-656.094"/>
</g>
<!-- \\PartDB\\User&#45;&gt;\\PartDB\\Interfaces\\IHasPermissions -->
<g id="edge51" class="edge"><title>\\PartDB\\User&#45;&gt;\\PartDB\\Interfaces\\IHasPermissions</title>
<path fill="none" stroke="black" stroke-dasharray="1,5" d="M1199.37,-618.804C1180.53,-615.431 1155.3,-608.612 1137,-595 1090.71,-560.574 1111.29,-521.426 1065,-487 1058.75,-482.349 1051.68,-478.491 1044.35,-475.293"/>
<polygon fill="none" stroke="black" points="1045.53,-471.997 1034.94,-471.585 1042.96,-478.509 1045.53,-471.997"/>
</g>
<!-- \\PartDB\\User&#45;&gt;\\PartDB\\Interfaces\\ISearchable -->
<g id="edge50" class="edge"><title>\\PartDB\\User&#45;&gt;\\PartDB\\Interfaces\\ISearchable</title>
<path fill="none" stroke="black" stroke-dasharray="1,5" d="M1199.15,-615.236C1181.33,-610.355 1157.42,-603.199 1137,-595 1095.08,-578.173 1049.27,-554.486 1017.36,-537.073"/>
<polygon fill="none" stroke="black" points="1018.78,-533.861 1008.33,-532.112 1015.41,-539.995 1018.78,-533.861"/>
</g>
</g>
</svg>
