<?xml version="1.0" encoding="UTF-8" standalone="no"?>
<!DOCTYPE svg PUBLIC "-//W3C//DTD SVG 1.1//EN"
 "http://www.w3.org/Graphics/SVG/1.1/DTD/svg11.dtd">
<!-- Generated by graphviz version 2.38.0 (20140413.2041)
 -->
<!-- Title: G Pages: 1 -->
<svg width="1471pt" height="728pt"
 viewBox="0.00 0.00 1471.00 728.00" xmlns="http://www.w3.org/2000/svg" xmlns:xlink="http://www.w3.org/1999/xlink">
<g id="graph0" class="graph" transform="scale(1 1) rotate(0) translate(4 724)">
<title>G</title>
<polygon fill="white" stroke="none" points="-4,4 -4,-724 1467,-724 1467,4 -4,4"/>
<g id="clust1" class="cluster"><title>cluster_Global</title>
<path fill="none" stroke="gray" d="M20,-8C20,-8 1443,-8 1443,-8 1449,-8 1455,-14 1455,-20 1455,-20 1455,-700 1455,-700 1455,-706 1449,-712 1443,-712 1443,-712 20,-712 20,-712 14,-712 8,-706 8,-700 8,-700 8,-20 8,-20 8,-14 14,-8 20,-8"/>
<text text-anchor="middle" x="731.5" y="-699.2" font-family="Times New Roman,serif" font-size="11.00" fill="gray">Global</text>
</g>
<g id="clust2" class="cluster"><title>cluster_\PartDB</title>
<path fill="none" stroke="gray" d="M28,-16C28,-16 1435,-16 1435,-16 1441,-16 1447,-22 1447,-28 1447,-28 1447,-672 1447,-672 1447,-678 1441,-684 1435,-684 1435,-684 28,-684 28,-684 22,-684 16,-678 16,-672 16,-672 16,-28 16,-28 16,-22 22,-16 28,-16"/>
<text text-anchor="middle" x="731.5" y="-671.2" font-family="Times New Roman,serif" font-size="11.00" fill="gray">PartDB</text>
</g>
<g id="clust4" class="cluster"><title>cluster_\PartDB\Interfaces</title>
<path fill="none" stroke="gray" d="M934,-284C934,-284 1017,-284 1017,-284 1023,-284 1029,-290 1029,-296 1029,-296 1029,-398 1029,-398 1029,-404 1023,-410 1017,-410 1017,-410 934,-410 934,-410 928,-410 922,-404 922,-398 922,-398 922,-296 922,-296 922,-290 928,-284 934,-284"/>
<text text-anchor="middle" x="975.5" y="-397.2" font-family="Times New Roman,serif" font-size="11.00" fill="gray">Interfaces</text>
</g>
<g id="clust5" class="cluster"><title>cluster_\PartDB\Label</title>
<path fill="none" stroke="gray" d="M1344.5,-580C1344.5,-580 1413.5,-580 1413.5,-580 1419.5,-580 1425.5,-586 1425.5,-592 1425.5,-592 1425.5,-640 1425.5,-640 1425.5,-646 1419.5,-652 1413.5,-652 1413.5,-652 1344.5,-652 1344.5,-652 1338.5,-652 1332.5,-646 1332.5,-640 1332.5,-640 1332.5,-592 1332.5,-592 1332.5,-586 1338.5,-580 1344.5,-580"/>
<text text-anchor="middle" x="1379" y="-639.2" font-family="Times New Roman,serif" font-size="11.00" fill="gray">Label</text>
</g>
<g id="clust3" class="cluster"><title>cluster_\PartDB\Base</title>
<path fill="none" stroke="gray" d="M36,-432C36,-432 1234,-432 1234,-432 1240,-432 1246,-438 1246,-444 1246,-444 1246,-492 1246,-492 1246,-498 1240,-504 1234,-504 1234,-504 36,-504 36,-504 30,-504 24,-498 24,-492 24,-492 24,-444 24,-444 24,-438 30,-432 36,-432"/>
<text text-anchor="middle" x="635" y="-491.2" font-family="Times New Roman,serif" font-size="11.00" fill="gray">Base</text>
</g>
<g id="clust6" class="cluster"><title>cluster_\PartDB\PartProperty</title>
<path fill="none" stroke="gray" d="M1148,-144C1148,-144 1244,-144 1244,-144 1250,-144 1256,-150 1256,-156 1256,-156 1256,-258 1256,-258 1256,-264 1250,-270 1244,-270 1244,-270 1148,-270 1148,-270 1142,-270 1136,-264 1136,-258 1136,-258 1136,-156 1136,-156 1136,-150 1142,-144 1148,-144"/>
<text text-anchor="middle" x="1196" y="-257.2" font-family="Times New Roman,serif" font-size="11.00" fill="gray">PartProperty</text>
</g>
<g id="clust7" class="cluster"><title>cluster_\PartDB\Tools</title>
<path fill="none" stroke="gray" d="M1331,-443C1331,-443 1427,-443 1427,-443 1433,-443 1439,-449 1439,-455 1439,-455 1439,-557 1439,-557 1439,-563 1433,-569 1427,-569 1427,-569 1331,-569 1331,-569 1325,-569 1319,-563 1319,-557 1319,-557 1319,-455 1319,-455 1319,-449 1325,-443 1331,-443"/>
<text text-anchor="middle" x="1379" y="-556.2" font-family="Times New Roman,serif" font-size="11.00" fill="gray">Tools</text>
</g>
<!-- \\PartDB\\Base\\AttachementsContainingDBElement -->
<g id="node1" class="node"><title>\\PartDB\\Base\\AttachementsContainingDBElement</title>
<polygon fill="none" stroke="black" points="597,-476 371,-476 371,-440 597,-440 597,-476"/>
<text text-anchor="start" x="450" y="-461.2" font-family="Courier,monospace" font-size="11.00">«abstract»</text>
<text text-anchor="start" x="379" y="-449.2" font-family="Courier,monospace" font-size="11.00">AttachementsContainingDBElement</text>
</g>
<!-- \\PartDB\\Base\\NamedDBElement -->
<g id="node4" class="node"><title>\\PartDB\\Base\\NamedDBElement</title>
<polygon fill="none" stroke="black" points="299,-476 188,-476 188,-440 299,-440 299,-476"/>
<text text-anchor="start" x="209.5" y="-461.2" font-family="Courier,monospace" font-size="11.00">«abstract»</text>
<text text-anchor="start" x="196" y="-449.2" font-family="Courier,monospace" font-size="11.00">NamedDBElement</text>
</g>
<!-- \\PartDB\\Base\\AttachementsContainingDBElement&#45;&gt;\\PartDB\\Base\\NamedDBElement -->
<g id="edge4" class="edge"><title>\\PartDB\\Base\\AttachementsContainingDBElement&#45;&gt;\\PartDB\\Base\\NamedDBElement</title>
<path fill="none" stroke="black" d="M370.734,-458C349.637,-458 328.247,-458 309.218,-458"/>
<polygon fill="none" stroke="black" points="309.203,-454.5 299.203,-458 309.203,-461.5 309.203,-454.5"/>
</g>
<!-- \\PartDB\\Base\\Company -->
<g id="node2" class="node"><title>\\PartDB\\Base\\Company</title>
<polygon fill="none" stroke="black" points="1238,-476 1154,-476 1154,-440 1238,-440 1238,-476"/>
<text text-anchor="start" x="1162" y="-461.2" font-family="Courier,monospace" font-size="11.00">«abstract»</text>
<text text-anchor="start" x="1172" y="-449.2" font-family="Courier,monospace" font-size="11.00">Company</text>
</g>
<!-- \\PartDB\\Base\\PartsContainingDBElement -->
<g id="node5" class="node"><title>\\PartDB\\Base\\PartsContainingDBElement</title>
<polygon fill="none" stroke="black" points="1065,-476 886,-476 886,-440 1065,-440 1065,-476"/>
<text text-anchor="start" x="941.5" y="-461.2" font-family="Courier,monospace" font-size="11.00">«abstract»</text>
<text text-anchor="start" x="894" y="-449.2" font-family="Courier,monospace" font-size="11.00">PartsContainingDBElement</text>
</g>
<!-- \\PartDB\\Base\\Company&#45;&gt;\\PartDB\\Base\\PartsContainingDBElement -->
<g id="edge5" class="edge"><title>\\PartDB\\Base\\Company&#45;&gt;\\PartDB\\Base\\PartsContainingDBElement</title>
<path fill="none" stroke="black" d="M1153.9,-458C1131.66,-458 1103.15,-458 1075.51,-458"/>
<polygon fill="none" stroke="black" points="1075.39,-454.5 1065.39,-458 1075.39,-461.5 1075.39,-454.5"/>
</g>
<!-- \\PartDB\\Interfaces\\IAPIModel -->
<g id="node7" class="node"><title>\\PartDB\\Interfaces\\IAPIModel</title>
<polygon fill="none" stroke="black" points="1014,-382 937,-382 937,-346 1014,-346 1014,-382"/>
<text text-anchor="middle" x="975.5" y="-361.2" font-family="Courier,monospace" font-size="11.00">IAPIModel</text>
</g>
<!-- \\PartDB\\Base\\Company&#45;&gt;\\PartDB\\Interfaces\\IAPIModel -->
<g id="edge6" class="edge"><title>\\PartDB\\Base\\Company&#45;&gt;\\PartDB\\Interfaces\\IAPIModel</title>
<path fill="none" stroke="black" stroke-dasharray="1,5" d="M1153.92,-443.086C1147.88,-440.778 1141.76,-438.372 1136,-436 1097.81,-420.28 1055.2,-400.953 1023.64,-386.283"/>
<polygon fill="none" stroke="black" points="1024.76,-382.943 1014.22,-381.888 1021.8,-389.287 1024.76,-382.943"/>
</g>
<!-- \\PartDB\\Base\\DBElement -->
<g id="node3" class="node"><title>\\PartDB\\Base\\DBElement</title>
<polygon fill="none" stroke="black" points="116,-476 32,-476 32,-440 116,-440 116,-476"/>
<text text-anchor="start" x="40" y="-461.2" font-family="Courier,monospace" font-size="11.00">«abstract»</text>
<text text-anchor="start" x="43.5" y="-449.2" font-family="Courier,monospace" font-size="11.00">DBElement</text>
</g>
<!-- \\PartDB\\Base\\NamedDBElement&#45;&gt;\\PartDB\\Base\\DBElement -->
<g id="edge7" class="edge"><title>\\PartDB\\Base\\NamedDBElement&#45;&gt;\\PartDB\\Base\\DBElement</title>
<path fill="none" stroke="black" d="M187.654,-458C167.921,-458 145.747,-458 126.325,-458"/>
<polygon fill="none" stroke="black" points="126.149,-454.5 116.149,-458 126.149,-461.5 126.149,-454.5"/>
</g>
<!-- \\PartDB\\Base\\StructuralDBElement -->
<g id="node6" class="node"><title>\\PartDB\\Base\\StructuralDBElement</title>
<polygon fill="none" stroke="black" points="814,-476 669,-476 669,-440 814,-440 814,-476"/>
<text text-anchor="start" x="707.5" y="-461.2" font-family="Courier,monospace" font-size="11.00">«abstract»</text>
<text text-anchor="start" x="677" y="-449.2" font-family="Courier,monospace" font-size="11.00">StructuralDBElement</text>
</g>
<!-- \\PartDB\\Base\\PartsContainingDBElement&#45;&gt;\\PartDB\\Base\\StructuralDBElement -->
<g id="edge8" class="edge"><title>\\PartDB\\Base\\PartsContainingDBElement&#45;&gt;\\PartDB\\Base\\StructuralDBElement</title>
<path fill="none" stroke="black" d="M885.798,-458C865.645,-458 844.328,-458 824.47,-458"/>
<polygon fill="none" stroke="black" points="824.233,-454.5 814.233,-458 824.233,-461.5 824.233,-454.5"/>
</g>
<!-- \\PartDB\\Base\\StructuralDBElement&#45;&gt;\\PartDB\\Base\\AttachementsContainingDBElement -->
<g id="edge9" class="edge"><title>\\PartDB\\Base\\StructuralDBElement&#45;&gt;\\PartDB\\Base\\AttachementsContainingDBElement</title>
<path fill="none" stroke="black" d="M668.989,-458C649.745,-458 628.374,-458 607.205,-458"/>
<polygon fill="none" stroke="black" points="607.173,-454.5 597.173,-458 607.173,-461.5 607.173,-454.5"/>
</g>
<!-- \\PartDB\\Interfaces\\ISearchable -->
<g id="node8" class="node"><title>\\PartDB\\Interfaces\\ISearchable</title>
<polygon fill="none" stroke="black" points="1021,-328 930,-328 930,-292 1021,-292 1021,-328"/>
<text text-anchor="middle" x="975.5" y="-307.2" font-family="Courier,monospace" font-size="11.00">ISearchable</text>
</g>
<!-- \\PartDB\\Label\\PartLabel -->
<g id="node9" class="node"><title>\\PartDB\\Label\\PartLabel</title>
<polygon fill="none" stroke="black" points="1417.5,-624 1340.5,-624 1340.5,-588 1417.5,-588 1417.5,-624"/>
<text text-anchor="middle" x="1379" y="-603.2" font-family="Courier,monospace" font-size="11.00">PartLabel</text>
</g>
<!-- \\PartDB\\PartProperty\\PartNameRegEx -->
<g id="node10" class="node"><title>\\PartDB\\PartProperty\\PartNameRegEx</title>
<polygon fill="none" stroke="black" points="1248,-242 1144,-242 1144,-206 1248,-206 1248,-242"/>
<text text-anchor="middle" x="1196" y="-221.2" font-family="Courier,monospace" font-size="11.00">PartNameRegEx</text>
</g>
<!-- \\PartDB\\PartProperty\\PartProperty -->
<g id="node11" class="node"><title>\\PartDB\\PartProperty\\PartProperty</title>
<polygon fill="none" stroke="black" points="1245,-188 1147,-188 1147,-152 1245,-152 1245,-188"/>
<text text-anchor="middle" x="1196" y="-167.2" font-family="Courier,monospace" font-size="11.00">PartProperty</text>
</g>
<!-- \\PartDB\\PartProperty\\PartProperty&#45;&gt;\\PartDB\\Interfaces\\IAPIModel -->
<g id="edge25" class="edge"><title>\\PartDB\\PartProperty\\PartProperty&#45;&gt;\\PartDB\\Interfaces\\IAPIModel</title>
<path fill="none" stroke="black" stroke-dasharray="1,5" d="M1147.69,-188.002C1143.48,-190.654 1139.49,-193.644 1136,-197 1085.69,-245.332 1118.41,-292.12 1065,-337 1053.41,-346.739 1038.36,-352.967 1023.96,-356.949"/>
<polygon fill="none" stroke="black" points="1023.03,-353.574 1014.15,-359.362 1024.7,-360.372 1023.03,-353.574"/>
</g>
<!-- \\PartDB\\Tools\\PDBDebugBar -->
<g id="node12" class="node"><title>\\PartDB\\Tools\\PDBDebugBar</title>
<polygon fill="none" stroke="black" points="1424.5,-541 1333.5,-541 1333.5,-505 1424.5,-505 1424.5,-541"/>
<text text-anchor="middle" x="1379" y="-520.2" font-family="Courier,monospace" font-size="11.00">PDBDebugBar</text>
</g>
<!-- \\PartDB\\Tools\\SystemVersion -->
<g id="node13" class="node"><title>\\PartDB\\Tools\\SystemVersion</title>
<polygon fill="none" stroke="black" points="1431,-487 1327,-487 1327,-451 1431,-451 1431,-487"/>
<text text-anchor="middle" x="1379" y="-466.2" font-family="Courier,monospace" font-size="11.00">SystemVersion</text>
</g>
<!-- \\PartDB\\Attachement -->
<g id="node14" class="node"><title>\\PartDB\\Attachement</title>
<polygon fill="none" stroke="black" points="529.5,-548 438.5,-548 438.5,-512 529.5,-512 529.5,-548"/>
<text text-anchor="middle" x="484" y="-527.2" font-family="Courier,monospace" font-size="11.00">Attachement</text>
</g>
<!-- \\PartDB\\Attachement&#45;&gt;\\PartDB\\Base\\NamedDBElement -->
<g id="edge1" class="edge"><title>\\PartDB\\Attachement&#45;&gt;\\PartDB\\Base\\NamedDBElement</title>
<path fill="none" stroke="black" d="M438.4,-523.165C417.69,-519.502 392.868,-514.411 371,-508 367.146,-506.87 331.651,-492.816 299.24,-479.895"/>
<polygon fill="none" stroke="black" points="300.35,-476.57 289.765,-476.116 297.757,-483.072 300.35,-476.57"/>
</g>
<!-- \\PartDB\\AttachementType -->
<g id="node15" class="node"><title>\\PartDB\\AttachementType</title>
<polygon fill="none" stroke="black" points="1255,-548 1137,-548 1137,-512 1255,-512 1255,-548"/>
<text text-anchor="middle" x="1196" y="-527.2" font-family="Courier,monospace" font-size="11.00">AttachementType</text>
</g>
<!-- \\PartDB\\AttachementType&#45;&gt;\\PartDB\\Base\\StructuralDBElement -->
<g id="edge2" class="edge"><title>\\PartDB\\AttachementType&#45;&gt;\\PartDB\\Base\\StructuralDBElement</title>
<path fill="none" stroke="black" d="M1136.8,-522.255C1074.6,-513.808 973.161,-499.54 886,-485 866,-481.664 844.488,-477.776 824.363,-474.008"/>
<polygon fill="none" stroke="black" points="824.77,-470.523 814.295,-472.111 823.474,-477.402 824.77,-470.523"/>
</g>
<!-- \\PartDB\\AttachementType&#45;&gt;\\PartDB\\Interfaces\\IAPIModel -->
<g id="edge3" class="edge"><title>\\PartDB\\AttachementType&#45;&gt;\\PartDB\\Interfaces\\IAPIModel</title>
<path fill="none" stroke="black" stroke-dasharray="1,5" d="M1142.2,-511.868C1140.06,-510.648 1137.98,-509.36 1136,-508 1096.79,-481.121 1100.25,-459.897 1065,-428 1048.96,-413.483 1029.63,-399.191 1013.14,-387.809"/>
<polygon fill="none" stroke="black" points="1015.04,-384.87 1004.8,-382.136 1011.1,-390.656 1015.04,-384.87"/>
</g>
<!-- \\PartDB\\Category -->
<g id="node16" class="node"><title>\\PartDB\\Category</title>
<polygon fill="none" stroke="black" points="1231.5,-368 1160.5,-368 1160.5,-332 1231.5,-332 1231.5,-368"/>
<text text-anchor="middle" x="1196" y="-347.2" font-family="Courier,monospace" font-size="11.00">Category</text>
</g>
<!-- \\PartDB\\Category&#45;&gt;\\PartDB\\Base\\PartsContainingDBElement -->
<g id="edge10" class="edge"><title>\\PartDB\\Category&#45;&gt;\\PartDB\\Base\\PartsContainingDBElement</title>
<path fill="none" stroke="black" d="M1160.23,-365.553C1152.23,-369.229 1143.79,-373.19 1136,-377 1104.03,-392.631 1096.71,-397.856 1065,-414 1051.21,-421.021 1036.15,-428.556 1022.43,-435.371"/>
<polygon fill="none" stroke="black" points="1020.58,-432.381 1013.18,-439.959 1023.69,-438.653 1020.58,-432.381"/>
</g>
<!-- \\PartDB\\Category&#45;&gt;\\PartDB\\Interfaces\\IAPIModel -->
<g id="edge11" class="edge"><title>\\PartDB\\Category&#45;&gt;\\PartDB\\Interfaces\\IAPIModel</title>
<path fill="none" stroke="black" stroke-dasharray="1,5" d="M1160.38,-352.218C1123.66,-354.571 1065.4,-358.304 1024.31,-360.937"/>
<polygon fill="none" stroke="black" points="1024.01,-357.448 1014.26,-361.581 1024.46,-364.434 1024.01,-357.448"/>
</g>
<!-- \\PartDB\\Category&#45;&gt;\\PartDB\\Interfaces\\ISearchable -->
<g id="edge12" class="edge"><title>\\PartDB\\Category&#45;&gt;\\PartDB\\Interfaces\\ISearchable</title>
<path fill="none" stroke="black" stroke-dasharray="1,5" d="M1160.38,-343.662C1125.66,-337.305 1071.67,-327.422 1031.16,-320.006"/>
<polygon fill="none" stroke="black" points="1031.64,-316.536 1021.17,-318.178 1030.38,-323.421 1031.64,-316.536"/>
</g>
<!-- \\PartDB\\Database -->
<g id="node17" class="node"><title>\\PartDB\\Database</title>
<polygon fill="none" stroke="black" points="1414.5,-426 1343.5,-426 1343.5,-390 1414.5,-390 1414.5,-426"/>
<text text-anchor="middle" x="1379" y="-405.2" font-family="Courier,monospace" font-size="11.00">Database</text>
</g>
<!-- \\PartDB\\Device -->
<g id="node18" class="node"><title>\\PartDB\\Device</title>
<polygon fill="none" stroke="black" points="1224.5,-602 1167.5,-602 1167.5,-566 1224.5,-566 1224.5,-602"/>
<text text-anchor="middle" x="1196" y="-581.2" font-family="Courier,monospace" font-size="11.00">Device</text>
</g>
<!-- \\PartDB\\Device&#45;&gt;\\PartDB\\Base\\PartsContainingDBElement -->
<g id="edge13" class="edge"><title>\\PartDB\\Device&#45;&gt;\\PartDB\\Base\\PartsContainingDBElement</title>
<path fill="none" stroke="black" d="M1167.33,-574.023C1157,-569.625 1145.48,-563.879 1136,-557 1100.82,-531.483 1104.35,-507.176 1066.55,-481.611"/>
<polygon fill="none" stroke="black" points="1068.16,-478.487 1057.83,-476.135 1064.43,-484.416 1068.16,-478.487"/>
</g>
<!-- \\PartDB\\DevicePart -->
<g id="node19" class="node"><title>\\PartDB\\DevicePart</title>
<polygon fill="none" stroke="black" points="285.5,-622 201.5,-622 201.5,-586 285.5,-586 285.5,-622"/>
<text text-anchor="middle" x="243.5" y="-601.2" font-family="Courier,monospace" font-size="11.00">DevicePart</text>
</g>
<!-- \\PartDB\\DevicePart&#45;&gt;\\PartDB\\Base\\DBElement -->
<g id="edge14" class="edge"><title>\\PartDB\\DevicePart&#45;&gt;\\PartDB\\Base\\DBElement</title>
<path fill="none" stroke="black" d="M208.465,-585.854C201.476,-581.626 194.326,-576.913 188,-572 153.397,-545.124 118.674,-508.26 97.0311,-483.814"/>
<polygon fill="none" stroke="black" points="99.4348,-481.246 90.2118,-476.032 94.1701,-485.86 99.4348,-481.246"/>
</g>
<!-- \\PartDB\\Footprint -->
<g id="node20" class="node"><title>\\PartDB\\Footprint</title>
<polygon fill="none" stroke="black" points="1234.5,-314 1157.5,-314 1157.5,-278 1234.5,-278 1234.5,-314"/>
<text text-anchor="middle" x="1196" y="-293.2" font-family="Courier,monospace" font-size="11.00">Footprint</text>
</g>
<!-- \\PartDB\\Footprint&#45;&gt;\\PartDB\\Base\\PartsContainingDBElement -->
<g id="edge15" class="edge"><title>\\PartDB\\Footprint&#45;&gt;\\PartDB\\Base\\PartsContainingDBElement</title>
<path fill="none" stroke="black" d="M1157.24,-310.001C1149.81,-313.636 1142.36,-317.972 1136,-323 1095.75,-354.803 1104.73,-381.553 1065,-414 1055.04,-422.136 1043.32,-429.28 1031.73,-435.315"/>
<polygon fill="none" stroke="black" points="1029.89,-432.322 1022.5,-439.915 1033.01,-438.587 1029.89,-432.322"/>
</g>
<!-- \\PartDB\\Footprint&#45;&gt;\\PartDB\\Interfaces\\IAPIModel -->
<g id="edge16" class="edge"><title>\\PartDB\\Footprint&#45;&gt;\\PartDB\\Interfaces\\IAPIModel</title>
<path fill="none" stroke="black" stroke-dasharray="1,5" d="M1157.48,-307.935C1131.53,-316.165 1096.19,-327.324 1065,-337 1051.8,-341.096 1037.47,-345.49 1024.26,-349.518"/>
<polygon fill="none" stroke="black" points="1022.97,-346.254 1014.42,-352.516 1025.01,-352.95 1022.97,-346.254"/>
</g>
<!-- \\PartDB\\Footprint&#45;&gt;\\PartDB\\Interfaces\\ISearchable -->
<g id="edge17" class="edge"><title>\\PartDB\\Footprint&#45;&gt;\\PartDB\\Interfaces\\ISearchable</title>
<path fill="none" stroke="black" stroke-dasharray="1,5" d="M1157.44,-298.407C1122.72,-300.631 1070.7,-303.965 1031.33,-306.487"/>
<polygon fill="none" stroke="black" points="1030.86,-303.01 1021.11,-307.142 1031.31,-309.995 1030.86,-303.01"/>
</g>
<!-- \\PartDB\\Group -->
<g id="node21" class="node"><title>\\PartDB\\Group</title>
<polygon fill="none" stroke="black" points="1002.5,-274 948.5,-274 948.5,-238 1002.5,-238 1002.5,-274"/>
<text text-anchor="middle" x="975.5" y="-253.2" font-family="Courier,monospace" font-size="11.00">Group</text>
</g>
<!-- \\PartDB\\Group&#45;&gt;\\PartDB\\Base\\StructuralDBElement -->
<g id="edge18" class="edge"><title>\\PartDB\\Group&#45;&gt;\\PartDB\\Base\\StructuralDBElement</title>
<path fill="none" stroke="black" d="M948.156,-257.312C928.965,-259.54 903.388,-265.307 886,-280 830.18,-327.169 867.911,-380.9 816.546,-432.865"/>
<polygon fill="none" stroke="black" points="813.986,-430.467 809.072,-439.853 818.767,-435.58 813.986,-430.467"/>
</g>
<!-- \\PartDB\\HTML -->
<g id="node22" class="node"><title>\\PartDB\\HTML</title>
<polygon fill="none" stroke="black" points="1406,-358 1352,-358 1352,-322 1406,-322 1406,-358"/>
<text text-anchor="middle" x="1379" y="-337.2" font-family="Courier,monospace" font-size="11.00">HTML</text>
</g>
<!-- \\PartDB\\Log -->
<g id="node23" class="node"><title>\\PartDB\\Log</title>
<polygon fill="none" stroke="black" points="1406,-277 1352,-277 1352,-241 1406,-241 1406,-277"/>
<text text-anchor="middle" x="1379" y="-256.2" font-family="Courier,monospace" font-size="11.00">Log</text>
</g>
<!-- \\PartDB\\Manufacturer -->
<g id="node24" class="node"><title>\\PartDB\\Manufacturer</title>
<polygon fill="none" stroke="black" points="1428,-168 1330,-168 1330,-132 1428,-132 1428,-168"/>
<text text-anchor="middle" x="1379" y="-147.2" font-family="Courier,monospace" font-size="11.00">Manufacturer</text>
</g>
<!-- \\PartDB\\Manufacturer&#45;&gt;\\PartDB\\Base\\Company -->
<g id="edge19" class="edge"><title>\\PartDB\\Manufacturer&#45;&gt;\\PartDB\\Base\\Company</title>
<path fill="none" stroke="black" d="M1362.32,-168.102C1349.2,-184.021 1330.8,-208.289 1319,-232 1276.74,-316.96 1321.15,-367.004 1256,-436 1253.37,-438.787 1250.35,-441.223 1247.1,-443.353"/>
<polygon fill="none" stroke="black" points="1245.16,-440.427 1238.07,-448.302 1248.52,-446.565 1245.16,-440.427"/>
</g>
<!-- \\PartDB\\Manufacturer&#45;&gt;\\PartDB\\Interfaces\\ISearchable -->
<g id="edge20" class="edge"><title>\\PartDB\\Manufacturer&#45;&gt;\\PartDB\\Interfaces\\ISearchable</title>
<path fill="none" stroke="black" stroke-dasharray="1,5" d="M1337.53,-131.905C1331.29,-128.994 1324.95,-125.963 1319,-123 1267.4,-97.3055 1252.29,-62.7194 1197,-79"/>
</g>
<!-- \\PartDB\\Orderdetails -->
<g id="node25" class="node"><title>\\PartDB\\Orderdetails</title>
<polygon fill="none" stroke="black" points="1245,-656 1147,-656 1147,-620 1245,-620 1245,-656"/>
<text text-anchor="middle" x="1196" y="-635.2" font-family="Courier,monospace" font-size="11.00">Orderdetails</text>
</g>
<!-- \\PartDB\\Orderdetails&#45;&gt;\\PartDB\\Base\\DBElement -->
<g id="edge21" class="edge"><title>\\PartDB\\Orderdetails&#45;&gt;\\PartDB\\Base\\DBElement</title>
<path fill="none" stroke="black" d="M1146.84,-625.388C1064.57,-604.986 891.402,-567 742.5,-567 742.5,-567 742.5,-567 483,-567 433.024,-567 419.92,-567.218 371,-557 282.568,-538.53 183.779,-502.129 125.628,-478.985"/>
<polygon fill="none" stroke="black" points="126.887,-475.72 116.302,-475.249 124.283,-482.217 126.887,-475.72"/>
</g>
<!-- \\PartDB\\Orderdetails&#45;&gt;\\PartDB\\Interfaces\\IAPIModel -->
<g id="edge22" class="edge"><title>\\PartDB\\Orderdetails&#45;&gt;\\PartDB\\Interfaces\\IAPIModel</title>
<path fill="none" stroke="black" stroke-dasharray="1,5" d="M1146.76,-619.967C1142.83,-617.338 1139.17,-614.361 1136,-611 1076.16,-547.517 1118.31,-497.058 1065,-428 1052.68,-412.043 1035.33,-398.302 1019.25,-387.688"/>
<polygon fill="none" stroke="black" points="1020.81,-384.53 1010.49,-382.119 1017.05,-390.438 1020.81,-384.53"/>
</g>
<!-- \\PartDB\\Part -->
<g id="node26" class="node"><title>\\PartDB\\Part</title>
<polygon fill="none" stroke="black" points="1223,-134 1169,-134 1169,-98 1223,-98 1223,-134"/>
<text text-anchor="middle" x="1196" y="-113.2" font-family="Courier,monospace" font-size="11.00">Part</text>
</g>
<!-- \\PartDB\\Part&#45;&gt;\\PartDB\\Base\\AttachementsContainingDBElement -->
<g id="edge23" class="edge"><title>\\PartDB\\Part&#45;&gt;\\PartDB\\Base\\AttachementsContainingDBElement</title>
<path fill="none" stroke="black" d="M1168.86,-123.163C1114.46,-138.581 985.837,-177.71 886,-229 782.161,-282.346 762.46,-307.047 669,-377 638.207,-400.047 634.788,-415.998 597.07,-435.444"/>
<polygon fill="none" stroke="black" points="595.349,-432.39 587.897,-439.921 598.419,-438.68 595.349,-432.39"/>
</g>
<!-- \\PartDB\\Part&#45;&gt;\\PartDB\\Interfaces\\IAPIModel -->
<g id="edge24" class="edge"><title>\\PartDB\\Part&#45;&gt;\\PartDB\\Interfaces\\IAPIModel</title>
<path fill="none" stroke="black" stroke-dasharray="1,5" d="M1168.74,-121.568C1157.39,-125.154 1144.73,-130.908 1136,-140 1071.53,-207.126 1132.43,-272.85 1065,-337 1053.94,-347.526 1038.89,-353.957 1024.34,-357.884"/>
<polygon fill="none" stroke="black" points="1023.33,-354.525 1014.4,-360.222 1024.93,-361.339 1023.33,-354.525"/>
</g>
<!-- \\PartDB\\Pricedetails -->
<g id="node27" class="node"><title>\\PartDB\\Pricedetails</title>
<polygon fill="none" stroke="black" points="1245,-60 1147,-60 1147,-24 1245,-24 1245,-60"/>
<text text-anchor="middle" x="1196" y="-39.2" font-family="Courier,monospace" font-size="11.00">Pricedetails</text>
</g>
<!-- \\PartDB\\Pricedetails&#45;&gt;\\PartDB\\Base\\DBElement -->
<g id="edge26" class="edge"><title>\\PartDB\\Pricedetails&#45;&gt;\\PartDB\\Base\\DBElement</title>
<path fill="none" stroke="black" d="M1146.97,-50.6474C1064.53,-64.7144 890.659,-91 742.5,-91 742.5,-91 742.5,-91 483,-91 279.801,-91 131.99,-345.734 88.3173,-430.751"/>
<polygon fill="none" stroke="black" points="85.1302,-429.298 83.7347,-439.8 91.3751,-432.46 85.1302,-429.298"/>
</g>
<!-- \\PartDB\\Pricedetails&#45;&gt;\\PartDB\\Interfaces\\IAPIModel -->
<g id="edge27" class="edge"><title>\\PartDB\\Pricedetails&#45;&gt;\\PartDB\\Interfaces\\IAPIModel</title>
<path fill="none" stroke="black" stroke-dasharray="1,5" d="M1165.3,-60.0505C1154.72,-67.7904 1143.56,-77.6713 1136,-89 1072.36,-184.365 1145.37,-255.232 1065,-337 1054.2,-347.984 1039.08,-354.528 1024.39,-358.416"/>
<polygon fill="none" stroke="black" points="1023.31,-355.071 1014.34,-360.706 1024.87,-361.896 1023.31,-355.071"/>
</g>
<!-- \\PartDB\\Storelocation -->
<g id="node28" class="node"><title>\\PartDB\\Storelocation</title>
<polygon fill="none" stroke="black" points="1248,-422 1144,-422 1144,-386 1248,-386 1248,-422"/>
<text text-anchor="middle" x="1196" y="-401.2" font-family="Courier,monospace" font-size="11.00">Storelocation</text>
</g>
<!-- \\PartDB\\Storelocation&#45;&gt;\\PartDB\\Base\\PartsContainingDBElement -->
<g id="edge28" class="edge"><title>\\PartDB\\Storelocation&#45;&gt;\\PartDB\\Base\\PartsContainingDBElement</title>
<path fill="none" stroke="black" d="M1143.77,-416.661C1118.72,-422.851 1087.94,-430.459 1059.64,-437.452"/>
<polygon fill="none" stroke="black" points="1058.62,-434.1 1049.75,-439.897 1060.3,-440.896 1058.62,-434.1"/>
</g>
<!-- \\PartDB\\Storelocation&#45;&gt;\\PartDB\\Interfaces\\IAPIModel -->
<g id="edge29" class="edge"><title>\\PartDB\\Storelocation&#45;&gt;\\PartDB\\Interfaces\\IAPIModel</title>
<path fill="none" stroke="black" stroke-dasharray="1,5" d="M1143.77,-394.622C1107.61,-388.001 1059.5,-379.194 1024.16,-372.724"/>
<polygon fill="none" stroke="black" points="1024.55,-369.239 1014.09,-370.881 1023.29,-376.125 1024.55,-369.239"/>
</g>
<!-- \\PartDB\\Storelocation&#45;&gt;\\PartDB\\Interfaces\\ISearchable -->
<g id="edge30" class="edge"><title>\\PartDB\\Storelocation&#45;&gt;\\PartDB\\Interfaces\\ISearchable</title>
<path fill="none" stroke="black" stroke-dasharray="1,5" d="M1154.16,-385.852C1148.03,-382.973 1141.82,-379.965 1136,-377 1103.73,-360.561 1098.29,-351.257 1065,-337 1054.26,-332.403 1042.49,-328.239 1031.13,-324.633"/>
<polygon fill="none" stroke="black" points="1031.88,-321.202 1021.29,-321.612 1029.82,-327.893 1031.88,-321.202"/>
</g>
<!-- \\PartDB\\Supplier -->
<g id="node29" class="node"><title>\\PartDB\\Supplier</title>
<polygon fill="none" stroke="black" points="1414.5,-114 1343.5,-114 1343.5,-78 1414.5,-78 1414.5,-114"/>
<text text-anchor="middle" x="1379" y="-93.2" font-family="Courier,monospace" font-size="11.00">Supplier</text>
</g>
<!-- \\PartDB\\Supplier&#45;&gt;\\PartDB\\Base\\Company -->
<g id="edge31" class="edge"><title>\\PartDB\\Supplier&#45;&gt;\\PartDB\\Base\\Company</title>
<path fill="none" stroke="black" d="M1343.38,-105.448C1334.25,-109.485 1325.23,-115.143 1319,-123 1230.87,-234.214 1348.09,-328.042 1256,-436 1253.4,-439.047 1250.34,-441.673 1246.99,-443.936"/>
<polygon fill="none" stroke="black" points="1245.24,-440.908 1238.22,-448.844 1248.65,-447.017 1245.24,-440.908"/>
</g>
<!-- \\PartDB\\Supplier&#45;&gt;\\PartDB\\Interfaces\\ISearchable -->
<g id="edge32" class="edge"><title>\\PartDB\\Supplier&#45;&gt;\\PartDB\\Interfaces\\ISearchable</title>
<path fill="none" stroke="black" stroke-dasharray="1,5" d="M1343.23,-85.1464C1306.24,-75.3344 1246.35,-64.4692 1197,-79"/>
<path fill="none" stroke="black" stroke-dasharray="1,5" d="M1195,-79C1169.49,-86.5121 1156.38,-71.9071 1136,-89 1064.06,-149.351 1134.61,-224.968 1065,-288 1055.55,-296.553 1043.3,-301.903 1030.94,-305.218"/>
<polygon fill="none" stroke="black" points="1030.03,-301.835 1021.05,-307.462 1031.58,-308.661 1030.03,-301.835"/>
</g>
<!-- \\PartDB\\System -->
<g id="node30" class="node"><title>\\PartDB\\System</title>
<polygon fill="none" stroke="black" points="1407.5,-60 1350.5,-60 1350.5,-24 1407.5,-24 1407.5,-60"/>
<text text-anchor="middle" x="1379" y="-39.2" font-family="Courier,monospace" font-size="11.00">System</text>
</g>
<!-- \\PartDB\\User -->
<g id="node31" class="node"><title>\\PartDB\\User</title>
<polygon fill="none" stroke="black" points="768.5,-422 714.5,-422 714.5,-386 768.5,-386 768.5,-422"/>
<text text-anchor="middle" x="741.5" y="-401.2" font-family="Courier,monospace" font-size="11.00">User</text>
</g>
<!-- \\PartDB\\User&#45;&gt;\\PartDB\\Base\\AttachementsContainingDBElement -->
<g id="edge33" class="edge"><title>\\PartDB\\User&#45;&gt;\\PartDB\\Base\\AttachementsContainingDBElement</title>
<path fill="none" stroke="black" d="M714.358,-410.039C685.629,-416.627 638.095,-427.383 597,-436 593.947,-436.64 590.846,-437.285 587.714,-437.931"/>
<polygon fill="none" stroke="black" points="586.725,-434.561 577.63,-439.996 588.129,-441.419 586.725,-434.561"/>
</g>
</g>
</svg>
